<?xml version="1.0" standalone="no"?>
<!DOCTYPE svg PUBLIC "-//W3C//DTD SVG 20010904//EN"
 "http://www.w3.org/TR/2001/REC-SVG-20010904/DTD/svg10.dtd">
<svg version="1.0" xmlns="http://www.w3.org/2000/svg"
 width="521.000000pt" height="479.000000pt" viewBox="0 0 521.000000 479.000000"
 preserveAspectRatio="xMidYMid meet">

<g transform="translate(0.000000,479.000000) scale(0.100000,-0.100000)"
fill="#000000" stroke="none">
<path d="M2274 4530 c-102 -33 -251 -142 -412 -303 -221 -218 -445 -537 -717
-1022 -109 -195 -377 -747 -562 -1160 -25 -55 -51 -113 -59 -130 -58 -128
-297 -829 -309 -906 -13 -86 25 -159 92 -175 34 -9 118 36 190 101 150 136
404 475 679 905 312 490 367 581 526 864 96 173 107 211 70 248 -20 20 -22 20
-47 4 -14 -10 -37 -36 -51 -59 -241 -409 -390 -643 -779 -1217 -238 -352 -479
-660 -516 -660 -25 0 -24 11 7 122 104 376 269 768 609 1448 144 288 182 358
332 615 345 587 461 748 696 970 162 154 315 246 440 267 201 34 275 -72 843
-1192 94 -186 245 -445 384 -660 190 -293 590 -757 830 -962 172 -147 592
-438 632 -438 38 0 14 29 -69 85 -209 139 -418 310 -661 543 -304 290 -433
445 -664 797 -142 217 -176 274 -283 475 -43 80 -92 172 -110 205 -18 33 -136
251 -262 485 -311 576 -328 604 -399 670 -76 70 -141 94 -264 97 -83 2 -118
-1 -166 -17z"/>
<path d="M1482 1751 c-8 -4 -12 -21 -10 -37 l3 -29 145 -5 145 -5 7 -390 c4
-214 10 -400 13 -413 5 -20 11 -23 48 -20 l42 3 3 407 2 408 23 5 c12 2 40 6
62 7 39 3 40 4 40 38 l0 35 -255 2 c-140 2 -261 -1 -268 -6z"/>
<path d="M1241 1703 c-18 -16 -26 -51 -57 -268 -19 -137 -40 -279 -45 -315
-29 -199 -26 -220 31 -220 44 0 54 14 61 94 4 41 10 80 14 86 10 15 78 12 103
-6 19 -13 22 -24 22 -89 0 -71 1 -75 25 -81 14 -3 36 -3 50 0 38 10 37 21 -50
611 -27 188 -36 205 -100 205 -18 0 -42 -8 -54 -17z m73 -215 c7 -32 26 -237
26 -275 0 -41 -30 -61 -68 -44 -24 11 -25 14 -18 81 3 39 9 103 12 143 7 98
12 117 29 117 8 0 17 -10 19 -22z"/>
<path d="M2095 1711 c-22 -9 -40 -83 -65 -266 -6 -44 -15 -107 -20 -140 -5
-33 -11 -78 -14 -100 -2 -22 -12 -91 -21 -154 -9 -62 -14 -120 -11 -127 7 -18
73 -29 90 -15 9 7 17 42 21 86 4 44 13 79 21 86 14 11 89 7 102 -6 3 -3 11
-43 17 -88 l11 -82 42 1 c23 0 45 4 49 7 6 7 -30 294 -62 497 -7 47 -19 127
-26 178 -7 52 -18 100 -24 109 -13 17 -82 26 -110 14z m67 -242 c4 -19 10 -90
14 -158 6 -109 5 -125 -9 -136 -10 -7 -28 -10 -42 -7 -23 4 -25 8 -25 66 0 71
17 236 26 260 10 26 28 13 36 -25z"/>
<path d="M3703 1710 c-13 -5 -25 -21 -28 -37 -3 -15 -10 -44 -15 -63 -5 -19
-20 -98 -34 -175 -38 -203 -47 -247 -53 -241 -3 2 -38 87 -79 186 -103 254
-103 254 -141 258 -18 2 -41 -2 -53 -8 -20 -11 -20 -18 -20 -405 0 -380 1
-395 19 -405 34 -18 61 -12 71 16 6 14 10 138 10 279 0 140 4 256 9 259 10 6
27 -34 108 -244 31 -80 60 -151 66 -158 13 -17 58 -11 68 8 4 8 25 105 46 214
52 275 63 271 63 -22 0 -127 3 -237 6 -246 7 -19 64 -22 82 -4 9 9 12 109 12
390 0 359 -1 378 -19 387 -29 16 -93 22 -118 11z"/>
<path d="M4023 1710 c-26 -10 -30 -22 -44 -125 -6 -44 -14 -107 -19 -140 -5
-33 -13 -91 -18 -130 -6 -38 -20 -143 -32 -233 -13 -89 -21 -165 -18 -168 13
-12 79 -16 92 -5 8 6 16 42 21 84 3 39 11 78 17 85 13 16 79 16 101 0 12 -9
19 -35 23 -88 4 -41 12 -78 18 -82 17 -12 50 -9 70 5 19 14 18 20 -54 527 -39
271 -35 256 -72 269 -36 13 -55 13 -85 1z m62 -210 c3 -6 12 -76 19 -157 11
-140 11 -148 -7 -166 -10 -10 -25 -16 -34 -13 -8 3 -19 6 -24 6 -16 0 -1 302
16 331 8 12 22 12 30 -1z"/>
<path d="M3115 1688 c-3 -7 -4 -177 -3 -378 l3 -365 39 -3 c24 -2 42 2 47 10
10 15 10 492 0 643 l-6 100 -38 3 c-24 2 -39 -1 -42 -10z"/>
<path d="M2843 1669 c-17 -5 -47 -28 -67 -50 -49 -58 -58 -125 -54 -406 3
-215 4 -231 26 -275 34 -69 72 -93 149 -93 57 0 65 3 97 34 38 36 44 59 24 79
-20 20 -46 13 -68 -18 -28 -39 -61 -39 -93 -1 -22 27 -25 42 -32 150 -10 159
3 448 21 483 27 52 81 48 107 -7 19 -40 38 -44 67 -15 25 25 25 28 -5 72 -35
52 -97 69 -172 47z"/>
<path d="M1536 1629 c-3 -17 -6 -196 -6 -398 0 -328 2 -370 18 -401 29 -59 53
-65 275 -68 l197 -3 0 35 0 36 -154 0 c-179 0 -213 5 -228 34 -8 15 -11 128
-9 400 3 413 5 396 -55 396 -27 0 -32 -4 -38 -31z"/>
</g>
</svg>
